# xmcd CD database file
#
# Track frame offsets:
#	150
#	15895
#	32863
#	54039
#	72376
#	102715
#	116243
#	139227
#	152055
#	167895
#
# Disc length: 2738 seconds
#
# Revision: 2
# Processed by: cddbd v1.5.2PL0 Copyright (c) Steve Scherf et al.
# Submitted via: CDex 1.79
#
DISCID=860ab00a
DTITLE=Ray Wylie Hubbard - Delirium Tremolos
DYEAR=2005
DGENRE=Country
TTITLE0=The Beauty Way
TTITLE1=Rock And Roll Gypsies
TTITLE2=Dallas After Midnight
TTITLE3=Torn In Two
TTITLE4=Drivin' Wheel
TTITLE5=This Mornin' I Am Born Again
TTITLE6=Dust Of The Chase
TTITLE7=Roll And I Tumble
TTITLE8=Cooler-N-Hell
TTITLE9=Choctaw Bingo
EXTD=Philo-11671-1244-2A YEAR: 2005
EXTT0=
EXTT1=
EXTT2=
EXTT3=
EXTT4=
EXTT5=
EXTT6=
EXTT7=
EXTT8=
EXTT9=
PLAYORDER=
